<?xml version="1.0"?><svg fill="#000000" xmlns="http://www.w3.org/2000/svg"  viewBox="0 0 50 50" width="500px" height="500px">    <path d="M 25 12 C 18.777475 12 13.133779 13.362754 8.9648438 15.636719 C 4.7959088 17.910683 2 21.190888 2 25 C 2 28.809112 4.7959088 32.089317 8.9648438 34.363281 C 13.133779 36.637246 18.777475 38 25 38 C 31.222525 38 36.866221 36.637246 41.035156 34.363281 C 45.204091 32.089317 48 28.809112 48 25 C 48 21.190888 45.204091 17.910683 41.035156 15.636719 C 36.866221 13.362754 31.222525 12 25 12 z M 25 14 C 30.927739 14 36.284626 15.323397 40.078125 17.392578 C 43.871624 19.461759 46 22.181695 46 25 C 46 27.818305 43.871624 30.538241 40.078125 32.607422 C 36.284626 34.676603 30.927739 36 25 36 C 19.072261 36 13.715374 34.676603 9.921875 32.607422 C 6.128376 30.538241 4 27.818305 4 25 C 4 22.181695 6.128376 19.461759 9.921875 17.392578 C 13.715374 15.323397 19.072261 14 25 14 z M 19.150391 15 C 19.106391 15 19.072016 15.025547 19.041016 15.060547 C 19.031016 15.071547 19.024625 15.082703 19.015625 15.095703 C 19.008625 15.105703 19.000141 15.112047 18.994141 15.123047 L 18.994141 15.136719 C 18.928141 15.263719 18.900391 15.431641 18.900391 15.431641 C 18.900391 15.431641 18.122813 17.883234 17.757812 18.615234 C 17.392813 19.347234 17.128125 20.036141 14.078125 20.369141 C 11.370125 20.713141 9.9492188 20.929688 9.9492188 20.929688 L 7.4472656 21.261719 C 7.4472656 21.261719 7.0019531 21.279312 7.0019531 21.445312 C 7.0019531 21.611313 7.378625 21.611906 7.515625 21.628906 C 7.652625 21.645906 10.324219 21.994141 10.324219 21.994141 C 10.324219 21.994141 14.593906 22.560953 15.003906 22.626953 C 15.259906 22.667953 15.798062 22.741531 16.289062 22.894531 C 16.421063 22.935531 16.544109 22.984109 16.662109 23.037109 C 16.693109 23.051109 16.722953 23.065078 16.751953 23.080078 C 16.866953 23.138078 16.974594 23.201391 17.058594 23.275391 C 17.555594 23.707391 17.983969 24.638531 18.292969 26.019531 C 18.600969 27.400531 18.927734 28.582031 18.927734 28.582031 C 18.927734 28.582031 18.940609 28.685062 18.974609 28.789062 C 19.009609 28.895063 19.064391 29 19.150391 29 C 19.192391 29 19.224906 28.973547 19.253906 28.935547 C 19.264906 28.920547 19.27125 28.898859 19.28125 28.880859 C 19.29325 28.857859 19.307406 28.8375 19.316406 28.8125 L 19.316406 28.804688 C 19.356406 28.689688 19.373047 28.568359 19.373047 28.568359 C 19.373047 28.568359 20.213922 25.323813 20.419922 24.757812 C 20.445922 24.684812 20.475813 24.597812 20.507812 24.507812 C 20.518812 24.478813 20.531969 24.444062 20.542969 24.414062 C 20.569969 24.342063 20.601719 24.266453 20.636719 24.189453 C 20.654719 24.148453 20.678219 24.108406 20.699219 24.066406 C 20.735219 23.995406 20.778219 23.922609 20.824219 23.849609 C 20.852219 23.805609 20.883016 23.761797 20.916016 23.716797 C 20.969016 23.644797 21.032609 23.575859 21.099609 23.505859 C 21.437609 23.150859 21.946203 22.837938 22.783203 22.710938 C 24.651203 22.427937 28.130859 22.044922 28.130859 22.044922 C 28.130859 22.044922 29.672156 21.863625 31.035156 21.765625 C 31.141156 21.757625 31.246609 21.750141 31.349609 21.744141 C 31.392609 21.741141 31.436516 21.738328 31.478516 21.736328 C 31.619516 21.728328 31.754766 21.721797 31.884766 21.716797 C 31.923766 21.714797 31.960047 21.713891 31.998047 21.712891 C 32.096047 21.709891 32.191297 21.706078 32.279297 21.705078 C 32.314297 21.705078 32.348859 21.705078 32.380859 21.705078 C 32.493859 21.705078 32.600453 21.707891 32.689453 21.712891 C 33.853453 21.779891 35.156422 21.944141 35.482422 21.994141 C 35.552422 22.005141 35.63475 22.019156 35.71875 22.035156 C 35.74375 22.040156 35.770875 22.048688 35.796875 22.054688 C 35.862875 22.069688 35.931047 22.091187 35.998047 22.117188 C 36.030047 22.129188 36.060797 22.143203 36.091797 22.158203 C 36.158797 22.191203 36.22025 22.235156 36.28125 22.285156 C 36.30425 22.304156 36.329563 22.319797 36.351562 22.341797 C 36.352562 22.342797 36.353469 22.344703 36.355469 22.345703 C 36.435469 22.426703 36.5085 22.524297 36.5625 22.654297 C 36.7905 23.209297 37.041016 24.251953 37.041016 24.251953 C 37.041016 24.251953 37.121094 24.572266 37.246094 24.572266 C 37.372094 24.572266 37.451172 24.273437 37.451172 24.273438 C 37.451172 24.273438 37.829797 23.0085 37.966797 22.6875 C 38.009797 22.5875 38.06825 22.490344 38.15625 22.402344 C 38.16725 22.391344 38.177453 22.380141 38.189453 22.369141 C 38.235453 22.327141 38.287562 22.288953 38.351562 22.251953 C 38.356563 22.248953 38.364141 22.245187 38.369141 22.242188 C 38.429141 22.208188 38.499172 22.178437 38.576172 22.148438 C 38.603172 22.138437 38.633109 22.128141 38.662109 22.119141 C 38.729109 22.097141 38.803766 22.075641 38.884766 22.056641 C 38.918766 22.048641 38.951281 22.040203 38.988281 22.033203 C 39.109281 22.008203 39.241531 21.984797 39.394531 21.966797 C 40.411531 21.844797 41.484375 21.623047 41.484375 21.623047 C 41.484375 21.623047 41.752391 21.614063 41.900391 21.539062 L 41.90625 21.539062 C 41.90825 21.538062 41.910109 21.536156 41.912109 21.535156 C 41.916109 21.533156 41.918875 21.531297 41.921875 21.529297 C 41.968875 21.502297 42 21.468828 42 21.423828 C 42 21.380828 41.966875 21.347312 41.921875 21.320312 C 41.914875 21.316312 41.909391 21.312594 41.900391 21.308594 C 41.853391 21.285594 41.797281 21.269812 41.738281 21.257812 C 41.723281 21.254812 41.712266 21.251047 41.697266 21.248047 C 41.684266 21.246047 41.66925 21.243187 41.65625 21.242188 L 41.644531 21.242188 C 41.541531 21.229187 41.449219 21.224609 41.449219 21.224609 L 39.119141 20.857422 C 39.119141 20.857422 39.091406 20.854563 39.066406 20.851562 C 39.056406 20.850562 39.040344 20.847703 39.027344 20.845703 C 39.001344 20.841703 38.967594 20.835125 38.933594 20.828125 C 38.881594 20.818125 38.820859 20.805109 38.755859 20.787109 C 38.734859 20.781109 38.713406 20.776531 38.691406 20.769531 C 38.519406 20.717531 38.331734 20.630047 38.177734 20.498047 C 38.158734 20.482047 38.139094 20.465266 38.121094 20.447266 C 38.048094 20.374266 37.983359 20.292406 37.943359 20.191406 C 37.703359 19.592406 37.451172 18.9375 37.451172 18.9375 C 37.451172 18.9375 37.429953 18.825094 37.376953 18.746094 L 37.376953 18.738281 C 37.374953 18.735281 37.369188 18.735422 37.367188 18.732422 C 37.341187 18.697422 37.311531 18.671875 37.269531 18.671875 C 37.232531 18.671875 37.200828 18.695516 37.173828 18.728516 C 37.173828 18.728516 37.171875 18.730469 37.171875 18.730469 L 37.171875 18.734375 C 37.100875 18.827375 37.0625 18.992188 37.0625 18.992188 C 37.0625 18.992188 36.789266 19.913891 36.572266 20.212891 C 36.355266 20.512891 36.093453 20.810875 34.939453 20.921875 C 34.659453 20.948875 34.416266 20.975953 34.197266 21.001953 C 33.997266 21.025953 33.825063 21.047359 33.664062 21.068359 C 33.541063 21.084359 33.445797 21.096375 33.341797 21.109375 C 33.285797 21.116375 33.229781 21.122906 33.175781 21.128906 C 33.160781 21.130906 33.141953 21.132766 33.126953 21.134766 C 32.977953 21.150766 32.843656 21.161062 32.722656 21.164062 C 32.265656 21.175062 31.3165 21.175891 30.5625 21.087891 C 29.8095 20.998891 24.931641 20.421875 24.931641 20.421875 C 24.931641 20.421875 24.898328 20.418063 24.861328 20.414062 C 24.851328 20.413062 24.834266 20.410203 24.822266 20.408203 C 24.784266 20.404203 24.732734 20.399578 24.677734 20.392578 C 24.645734 20.388578 24.611219 20.384859 24.574219 20.380859 C 24.518219 20.373859 24.453672 20.365422 24.388672 20.357422 C 24.334672 20.350422 24.275797 20.343938 24.216797 20.335938 C 24.115797 20.322937 24.011391 20.307969 23.900391 20.292969 C 23.873391 20.288969 23.845359 20.28525 23.818359 20.28125 C 23.719359 20.26725 23.618578 20.252328 23.517578 20.236328 C 23.478578 20.230328 23.439391 20.22475 23.400391 20.21875 C 23.273391 20.19875 23.148297 20.179203 23.029297 20.158203 C 23.021297 20.157203 23.013859 20.155297 23.005859 20.154297 C 22.894859 20.134297 22.791313 20.11475 22.695312 20.09375 C 22.669313 20.08775 22.643141 20.082172 22.619141 20.076172 C 22.520141 20.054172 22.431328 20.031766 22.361328 20.009766 C 21.745328 19.809766 20.840531 19.77525 20.144531 17.65625 C 19.447531 15.53725 19.402344 15.382812 19.402344 15.382812 C 19.402344 15.382812 19.377406 15.243859 19.316406 15.130859 L 19.316406 15.117188 C 19.308406 15.103188 19.296109 15.093078 19.287109 15.080078 C 19.279109 15.069078 19.272672 15.059781 19.263672 15.050781 C 19.231672 15.023781 19.195391 15 19.150391 15 z M 31.1875 24 C 31.1065 24 30.955281 24.335953 30.863281 24.626953 C 30.770281 24.917953 30.526969 25.779187 30.167969 25.992188 C 29.808969 26.204187 29.206859 26.328688 28.130859 26.429688 C 28.130859 26.429688 26.500375 26.551422 26.109375 26.732422 C 26.104375 26.734422 26.09875 26.735328 26.09375 26.736328 C 26.03375 26.762328 25.998 26.790359 26 26.818359 C 26.002 26.847359 26.035844 26.876297 26.089844 26.904297 C 26.106844 26.912297 26.133297 26.919734 26.154297 26.927734 C 26.200297 26.945734 26.247547 26.963469 26.310547 26.980469 C 26.316547 26.982469 26.318219 26.984328 26.324219 26.986328 L 26.330078 26.986328 C 26.852078 27.123328 27.834875 27.219141 28.046875 27.244141 C 28.227875 27.265141 28.735828 27.320719 29.173828 27.386719 C 29.287828 27.403719 29.393234 27.421453 29.490234 27.439453 C 29.517234 27.444453 29.543359 27.448125 29.568359 27.453125 C 29.662359 27.472125 29.747734 27.492719 29.802734 27.511719 C 30.127734 27.623719 30.347563 27.712594 30.476562 28.058594 C 30.603562 28.404594 30.917969 29.429688 30.917969 29.429688 C 30.917969 29.429688 30.987312 29.677703 31.070312 29.845703 L 31.070312 29.855469 C 31.076313 29.867469 31.081891 29.873766 31.087891 29.884766 C 31.091891 29.891766 31.095609 29.903156 31.099609 29.910156 C 31.102609 29.915156 31.106375 29.914922 31.109375 29.919922 C 31.138375 29.963922 31.165359 29.994094 31.193359 29.996094 C 31.194359 29.996094 31.196266 30 31.197266 30 C 31.216266 30 31.235859 29.983938 31.255859 29.960938 C 31.261859 29.953937 31.267437 29.944547 31.273438 29.935547 L 31.283203 29.923828 C 31.293203 29.906828 31.304453 29.887187 31.314453 29.867188 C 31.318453 29.860187 31.321219 29.855656 31.324219 29.847656 L 31.324219 29.84375 C 31.408219 29.66475 31.476562 29.396484 31.476562 29.396484 C 31.476562 29.396484 31.790437 28.112906 32.023438 27.878906 C 32.256437 27.644906 32.290172 27.555438 33.326172 27.398438 C 34.128172 27.277438 34.923516 27.143844 35.603516 27.089844 L 35.603516 27.082031 C 35.790516 27.068031 35.975578 27.055641 36.142578 27.056641 C 36.693578 27.057641 37.131109 27.099187 38.162109 27.242188 C 38.993109 27.357187 39.265219 27.506063 39.449219 27.914062 C 39.494219 28.012062 39.534219 28.121906 39.574219 28.253906 C 39.671219 28.571906 39.759891 28.840875 39.837891 29.046875 L 39.837891 29.048828 C 39.839891 29.052828 39.840797 29.054594 39.841797 29.058594 C 39.874797 29.144594 39.904594 29.208625 39.933594 29.265625 C 39.943594 29.285625 39.955844 29.314078 39.964844 29.330078 C 40.000844 29.392078 40.032547 29.429688 40.060547 29.429688 C 40.165547 29.429688 40.188969 29.285516 40.292969 28.978516 C 40.337969 28.787516 40.381828 28.629328 40.423828 28.486328 C 40.432828 28.455328 40.441172 28.427438 40.451172 28.398438 C 40.479172 28.312438 40.506203 28.241875 40.533203 28.171875 C 40.564203 28.093875 40.594953 28.017031 40.626953 27.957031 C 40.637953 27.935031 40.649156 27.914531 40.660156 27.894531 C 40.704156 27.817531 40.749875 27.750266 40.796875 27.697266 L 40.798828 27.693359 C 40.846828 27.638359 40.898172 27.596641 40.951172 27.556641 C 40.965172 27.545641 40.981094 27.533437 40.996094 27.523438 C 41.048094 27.487437 41.102109 27.452969 41.162109 27.417969 C 41.532109 27.197969 43.373047 27.001953 43.373047 27.001953 C 43.373047 27.001953 43.524594 26.986031 43.683594 26.957031 L 43.685547 26.957031 C 43.690547 26.956031 43.696172 26.954125 43.701172 26.953125 C 43.723172 26.949125 43.745578 26.944453 43.767578 26.939453 C 43.787578 26.935453 43.807172 26.931734 43.826172 26.927734 C 43.852172 26.921734 43.875437 26.91325 43.898438 26.90625 C 43.912438 26.90225 43.928406 26.896578 43.941406 26.892578 C 43.964406 26.883578 43.981047 26.875234 43.998047 26.865234 C 44.006047 26.860234 44.018391 26.855563 44.025391 26.851562 C 44.045391 26.834563 44.056641 26.819734 44.056641 26.802734 C 44.056641 26.772734 44.045344 26.747563 44.027344 26.726562 C 44.022344 26.720562 44.013813 26.715938 44.007812 26.710938 C 43.988813 26.694938 43.961734 26.679016 43.927734 26.666016 C 43.917734 26.662016 43.909438 26.658297 43.898438 26.654297 C 43.853437 26.639297 43.801422 26.626281 43.732422 26.613281 L 43.726562 26.613281 C 43.635562 26.596281 43.527719 26.578547 43.386719 26.560547 C 42.876719 26.494547 41.892578 26.274578 41.267578 26.142578 C 40.641578 26.010578 40.455078 25.253906 40.455078 25.253906 C 40.455078 25.253906 40.304156 24.791984 40.160156 24.583984 L 40.160156 24.580078 C 40.147156 24.561078 40.134094 24.549156 40.121094 24.535156 C 40.114094 24.528156 40.108563 24.519672 40.101562 24.513672 C 40.079563 24.494672 40.058062 24.482375 40.039062 24.484375 C 40.005063 24.486375 39.968688 24.523125 39.929688 24.578125 C 39.926687 24.582125 39.924875 24.581938 39.921875 24.585938 L 39.921875 24.589844 C 39.777875 24.803844 39.6085 25.306641 39.4375 25.681641 C 39.2185 26.164641 38.522344 26.273125 38.152344 26.328125 C 37.781344 26.383125 37.192188 26.538547 36.242188 26.560547 C 35.293188 26.582547 34.394531 26.417969 34.394531 26.417969 C 33.642531 26.327969 32.947734 26.293313 32.427734 26.070312 C 31.905734 25.846312 31.64 25.107156 31.5 24.660156 C 31.362 24.211156 31.2695 24 31.1875 24 z M 25.0625 29 C 25.0415 29 25.013375 29.027359 24.984375 29.068359 C 24.984375 29.068359 24.982422 29.070312 24.982422 29.070312 L 24.982422 29.072266 C 24.904422 29.185266 24.810141 29.415953 24.744141 29.626953 C 24.653141 29.917953 24.4135 30.779187 24.0625 30.992188 C 23.7105 31.204187 23.120453 31.326734 22.064453 31.427734 C 22.064453 31.427734 20.8895 31.51725 20.3125 31.65625 L 20.310547 31.65625 C 20.234547 31.67525 20.178953 31.693844 20.126953 31.714844 C 20.114953 31.719844 20.093984 31.724516 20.083984 31.728516 C 20.028984 31.754516 19.996047 31.781594 19.998047 31.808594 C 19.999047 31.836594 20.028172 31.862672 20.076172 31.888672 C 20.111172 31.907672 20.167656 31.925359 20.222656 31.943359 C 20.242656 31.950359 20.255344 31.958844 20.277344 31.964844 C 20.280344 31.965844 20.282156 31.966797 20.285156 31.966797 L 20.287109 31.966797 C 20.787109 32.108797 21.785094 32.207422 21.996094 32.232422 C 22.173094 32.253422 22.668703 32.307047 23.095703 32.373047 C 23.207703 32.390047 23.31025 32.409734 23.40625 32.427734 C 23.43325 32.432734 23.457422 32.436406 23.482422 32.441406 C 23.574422 32.460406 23.656937 32.481 23.710938 32.5 C 24.028938 32.612 24.244141 32.701828 24.369141 33.048828 C 24.493141 33.395828 24.800781 34.425781 24.800781 34.425781 C 24.800781 34.425781 24.866266 34.67475 24.947266 34.84375 L 24.947266 34.853516 C 24.953266 34.865516 24.960797 34.871813 24.966797 34.882812 C 24.973797 34.894813 24.979328 34.905016 24.986328 34.916016 C 25.015328 34.965016 25.044266 35 25.072266 35 C 25.091266 35 25.111859 34.983938 25.130859 34.960938 C 25.136859 34.953938 25.142437 34.944547 25.148438 34.935547 C 25.161438 34.915547 25.1755 34.892234 25.1875 34.865234 C 25.1905 34.859234 25.193266 34.854656 25.197266 34.847656 L 25.197266 34.845703 C 25.278266 34.666703 25.345703 34.394531 25.345703 34.394531 C 25.345703 34.394531 25.651906 33.108047 25.878906 32.873047 C 26.105906 32.638047 26.140391 32.548578 27.150391 32.392578 C 27.463391 32.343578 27.769266 32.295047 28.072266 32.248047 C 28.172266 32.233047 28.270141 32.217125 28.369141 32.203125 C 28.640141 32.163125 28.895531 32.135375 29.144531 32.109375 C 29.417531 32.081375 29.685922 32.056641 29.919922 32.056641 C 30.680922 32.056641 30.827969 32.067047 31.292969 32.123047 C 31.758969 32.179047 32.757297 32.303781 33.154297 32.425781 C 33.552297 32.548781 33.687063 32.827938 33.789062 33.085938 C 33.891062 33.342937 34.119141 34.025391 34.119141 34.025391 C 34.119141 34.025391 34.1765 34.306641 34.3125 34.306641 C 34.3535 34.306641 34.385109 34.275281 34.412109 34.238281 C 34.425109 34.221281 34.436266 34.201687 34.447266 34.179688 C 34.454266 34.165687 34.459844 34.156578 34.464844 34.142578 C 34.517844 34.024578 34.548594 33.899609 34.558594 33.849609 C 34.667594 33.527609 34.915312 32.832312 35.070312 32.695312 C 35.275312 32.516312 35.424594 32.347609 36.433594 32.224609 C 37.443594 32.100609 38.044484 31.977078 38.396484 31.955078 C 38.525484 31.947078 38.634516 31.934969 38.728516 31.917969 L 38.740234 31.919922 C 38.751234 31.917922 38.756578 31.912156 38.767578 31.910156 C 38.815578 31.900156 38.856625 31.889 38.890625 31.875 C 38.906625 31.869 38.923547 31.862469 38.935547 31.855469 C 38.974547 31.833469 39 31.807391 39 31.775391 C 39 31.742391 38.981172 31.717359 38.951172 31.693359 C 38.942172 31.686359 38.926062 31.679828 38.914062 31.673828 C 38.883063 31.656828 38.83825 31.640953 38.78125 31.626953 C 38.76825 31.623953 38.765953 31.618234 38.751953 31.615234 L 38.740234 31.615234 C 38.646234 31.594234 38.530281 31.575734 38.363281 31.552734 C 37.942281 31.496734 36.827625 31.375281 36.015625 31.238281 C 35.864625 31.212281 35.71675 31.186156 35.59375 31.160156 C 34.81175 30.993156 34.766344 30.377219 34.652344 30.074219 C 34.570344 29.856219 34.506203 29.548578 34.408203 29.392578 L 34.408203 29.386719 C 34.407203 29.384719 34.405297 29.384812 34.404297 29.382812 C 34.368297 29.326812 34.327297 29.289062 34.279297 29.289062 C 34.238297 29.289062 34.206734 29.310891 34.177734 29.337891 C 34.166734 29.347891 34.157437 29.359094 34.148438 29.371094 C 34.141438 29.381094 34.133953 29.387437 34.126953 29.398438 L 34.126953 29.408203 C 34.068953 29.512203 34.038578 29.652844 34.017578 29.714844 C 33.983578 29.815844 33.803969 30.454016 33.667969 30.666016 C 33.530969 30.879016 33.427531 31.113844 32.894531 31.214844 C 32.361531 31.315844 31.363875 31.527781 30.421875 31.550781 C 30.207875 31.555781 30.018844 31.555734 29.839844 31.552734 C 29.803844 31.551734 29.767422 31.551781 29.732422 31.550781 C 29.559422 31.545781 29.395234 31.537391 29.240234 31.525391 C 29.233234 31.525391 29.228656 31.524438 29.222656 31.523438 C 28.884656 31.498438 28.570031 31.460016 28.207031 31.416016 C 27.470031 31.326016 26.788344 31.292359 26.277344 31.068359 C 25.766344 30.844359 25.505141 30.106203 25.369141 29.658203 C 25.272141 29.338203 25.200719 29.145641 25.136719 29.056641 L 25.136719 29.052734 C 25.135719 29.050734 25.133813 29.050828 25.132812 29.048828 C 25.106812 29.018828 25.0845 29 25.0625 29 z"/></svg>